<mxfile host="app.diagrams.net" agent="Mozilla/5.0 (Windows NT 10.0; Win64; x64) AppleWebKit/537.36 (KHTML, like Gecko) Chrome/126.0.0.0 Safari/537.36 Edg/126.0.0.0" version="24.7.6">
  <diagram name="Page-1" id="-jrOg73M2zsh61xf-PO6">
    <mxGraphModel dx="1116" dy="681" grid="1" gridSize="10" guides="1" tooltips="1" connect="1" arrows="1" fold="1" page="1" pageScale="1" pageWidth="827" pageHeight="1169" math="0" shadow="0">
      <root>
        <mxCell id="0" />
        <mxCell id="1" parent="0" />
        <mxCell id="UJff8wT0SgUEgCZKrIbY-3" value="" style="edgeStyle=orthogonalEdgeStyle;rounded=0;orthogonalLoop=1;jettySize=auto;html=1;" edge="1" parent="1" source="UJff8wT0SgUEgCZKrIbY-1" target="UJff8wT0SgUEgCZKrIbY-2">
          <mxGeometry relative="1" as="geometry" />
        </mxCell>
        <mxCell id="UJff8wT0SgUEgCZKrIbY-1" value="For a milk sample (farm ID + values of the various parameters measured)" style="rounded=0;whiteSpace=wrap;html=1;" vertex="1" parent="1">
          <mxGeometry x="300" y="200" width="240" height="60" as="geometry" />
        </mxCell>
        <mxCell id="UJff8wT0SgUEgCZKrIbY-5" value="" style="edgeStyle=orthogonalEdgeStyle;rounded=0;orthogonalLoop=1;jettySize=auto;html=1;" edge="1" parent="1" source="UJff8wT0SgUEgCZKrIbY-2" target="UJff8wT0SgUEgCZKrIbY-4">
          <mxGeometry relative="1" as="geometry" />
        </mxCell>
        <mxCell id="UJff8wT0SgUEgCZKrIbY-10" style="edgeStyle=orthogonalEdgeStyle;rounded=0;orthogonalLoop=1;jettySize=auto;html=1;exitX=0;exitY=0.5;exitDx=0;exitDy=0;entryX=0.5;entryY=0;entryDx=0;entryDy=0;" edge="1" parent="1" source="UJff8wT0SgUEgCZKrIbY-2" target="UJff8wT0SgUEgCZKrIbY-6">
          <mxGeometry relative="1" as="geometry" />
        </mxCell>
        <mxCell id="UJff8wT0SgUEgCZKrIbY-12" style="edgeStyle=orthogonalEdgeStyle;rounded=0;orthogonalLoop=1;jettySize=auto;html=1;exitX=1;exitY=0.5;exitDx=0;exitDy=0;entryX=0.5;entryY=0;entryDx=0;entryDy=0;" edge="1" parent="1" source="UJff8wT0SgUEgCZKrIbY-2" target="UJff8wT0SgUEgCZKrIbY-11">
          <mxGeometry relative="1" as="geometry" />
        </mxCell>
        <mxCell id="UJff8wT0SgUEgCZKrIbY-2" value="Identification of the criticality (Trigger Value) associated with each parameter according to the thresholds defined by each farm" style="rounded=0;whiteSpace=wrap;html=1;" vertex="1" parent="1">
          <mxGeometry x="300" y="300" width="240" height="60" as="geometry" />
        </mxCell>
        <mxCell id="UJff8wT0SgUEgCZKrIbY-14" value="" style="edgeStyle=orthogonalEdgeStyle;rounded=0;orthogonalLoop=1;jettySize=auto;html=1;" edge="1" parent="1" source="UJff8wT0SgUEgCZKrIbY-4" target="UJff8wT0SgUEgCZKrIbY-13">
          <mxGeometry relative="1" as="geometry" />
        </mxCell>
        <mxCell id="UJff8wT0SgUEgCZKrIbY-4" value="At least one of the parameters has a Trigger Value equal to &lt;b&gt;&lt;font color=&quot;#ff0029&quot;&gt;Danger Zone (Low or High)&lt;/font&gt;&lt;/b&gt;" style="ellipse;whiteSpace=wrap;html=1;rounded=0;" vertex="1" parent="1">
          <mxGeometry x="345" y="400" width="150" height="120" as="geometry" />
        </mxCell>
        <mxCell id="UJff8wT0SgUEgCZKrIbY-17" style="edgeStyle=orthogonalEdgeStyle;rounded=0;orthogonalLoop=1;jettySize=auto;html=1;exitX=0.5;exitY=1;exitDx=0;exitDy=0;entryX=0.5;entryY=0;entryDx=0;entryDy=0;" edge="1" parent="1" source="UJff8wT0SgUEgCZKrIbY-6" target="UJff8wT0SgUEgCZKrIbY-15">
          <mxGeometry relative="1" as="geometry" />
        </mxCell>
        <mxCell id="UJff8wT0SgUEgCZKrIbY-6" value="The set of Trigger Values are non-critical (&lt;b&gt;&lt;font color=&quot;#00b050&quot;&gt;Adequate&lt;/font&gt;&lt;/b&gt;) or have a zero value" style="ellipse;whiteSpace=wrap;html=1;rounded=0;" vertex="1" parent="1">
          <mxGeometry x="45" y="400" width="150" height="120" as="geometry" />
        </mxCell>
        <mxCell id="UJff8wT0SgUEgCZKrIbY-18" style="edgeStyle=orthogonalEdgeStyle;rounded=0;orthogonalLoop=1;jettySize=auto;html=1;exitX=0.5;exitY=1;exitDx=0;exitDy=0;entryX=0.5;entryY=0;entryDx=0;entryDy=0;" edge="1" parent="1" source="UJff8wT0SgUEgCZKrIbY-11" target="UJff8wT0SgUEgCZKrIbY-16">
          <mxGeometry relative="1" as="geometry" />
        </mxCell>
        <mxCell id="UJff8wT0SgUEgCZKrIbY-11" value="No parameter has a Danger Zone Trigger Value, and at least one is not Adequate (&lt;b&gt;&lt;font color=&quot;#ffc000&quot;&gt;Low&lt;/font&gt;&lt;/b&gt; or &lt;b&gt;&lt;font color=&quot;#ffc000&quot;&gt;High&lt;/font&gt;&lt;/b&gt;)" style="ellipse;whiteSpace=wrap;html=1;rounded=0;" vertex="1" parent="1">
          <mxGeometry x="645" y="400" width="150" height="120" as="geometry" />
        </mxCell>
        <mxCell id="UJff8wT0SgUEgCZKrIbY-13" value="&lt;b&gt;&lt;font color=&quot;#ff0000&quot;&gt;The situation is deemed critical and a notification must be sent to the person in charge (no botanic pill is administrated)&lt;/font&gt;&lt;br&gt;(Case ii.)&lt;/b&gt;" style="whiteSpace=wrap;html=1;rounded=0;" vertex="1" parent="1">
          <mxGeometry x="300" y="560" width="240" height="60" as="geometry" />
        </mxCell>
        <mxCell id="UJff8wT0SgUEgCZKrIbY-15" value="&lt;b&gt;&lt;font color=&quot;#00b050&quot;&gt;No action is taken, the Target Value is set to &quot;No Treatment&quot;&lt;/font&gt;&lt;br&gt;(Case i.)&lt;/b&gt;" style="whiteSpace=wrap;html=1;rounded=0;" vertex="1" parent="1">
          <mxGeometry y="560" width="240" height="60" as="geometry" />
        </mxCell>
        <mxCell id="UJff8wT0SgUEgCZKrIbY-16" value="&lt;b&gt;&lt;font color=&quot;#ffc000&quot;&gt;Then the botanic pill recommendation algorithm is triggered&lt;/font&gt;&lt;br&gt;(Case iii.)&lt;/b&gt;" style="whiteSpace=wrap;html=1;rounded=0;" vertex="1" parent="1">
          <mxGeometry x="600" y="560" width="240" height="60" as="geometry" />
        </mxCell>
      </root>
    </mxGraphModel>
  </diagram>
</mxfile>
